<svg width="390" height="388" viewBox="0 0 390 388" fill="none" xmlns="http://www.w3.org/2000/svg">
<path d="M-678 155.2L-648 135.8C-618 116.4 -558 77.6 -498 71.1738C-438 64.2625 -378 90.9375 -318 129.374C-258 168.537 -198 219.463 -138 219.826C-78 219.463 -18 168.538 42 174.6C102 180.663 162 246.137 222 232.8C282 219.462 342 129.738 402 103.426C462 77.6 522 116.4 582 122.826C642 129.738 702 103.062 732 90.5737L762 77.6V388H732C702 388 642 388 582 388C522 388 462 388 402 388C342 388 282 388 222 388C162 388 102 388 42 388C-18 388 -78 388 -138 388C-198 388 -258 388 -318 388C-378 388 -438 388 -498 388C-558 388 -618 388 -648 388H-678V155.2Z" fill="#FF763B"/>
</svg>
